<mxfile host="app.diagrams.net" modified="2024-03-04T10:20:04.414Z" agent="Mozilla/5.0 (Macintosh; Intel Mac OS X 10_15_7) AppleWebKit/537.36 (KHTML, like Gecko) Chrome/122.0.0.0 Safari/537.36" etag="3b__G2BQVLfHljzz_Cyu" version="23.1.7" type="github">
  <diagram id="C5RBs43oDa-KdzZeNtuy" name="Page-1">
    <mxGraphModel dx="1024" dy="605" grid="1" gridSize="10" guides="1" tooltips="1" connect="1" arrows="1" fold="1" page="1" pageScale="1" pageWidth="827" pageHeight="1169" math="0" shadow="0">
      <root>
        <mxCell id="WIyWlLk6GJQsqaUBKTNV-0" />
        <mxCell id="WIyWlLk6GJQsqaUBKTNV-1" parent="WIyWlLk6GJQsqaUBKTNV-0" />
        <mxCell id="zHaXMeoHLVAZy8ZCwTgc-8" value="" style="edgeStyle=orthogonalEdgeStyle;rounded=0;orthogonalLoop=1;jettySize=auto;html=1;" edge="1" parent="WIyWlLk6GJQsqaUBKTNV-1" source="zHaXMeoHLVAZy8ZCwTgc-0" target="zHaXMeoHLVAZy8ZCwTgc-1">
          <mxGeometry relative="1" as="geometry" />
        </mxCell>
        <mxCell id="zHaXMeoHLVAZy8ZCwTgc-0" value="添加灵活退费账单信息" style="rounded=1;whiteSpace=wrap;html=1;fontSize=12;glass=0;strokeWidth=1;shadow=0;" vertex="1" parent="WIyWlLk6GJQsqaUBKTNV-1">
          <mxGeometry x="480" y="100" width="120" height="40" as="geometry" />
        </mxCell>
        <mxCell id="zHaXMeoHLVAZy8ZCwTgc-9" value="" style="edgeStyle=orthogonalEdgeStyle;rounded=0;orthogonalLoop=1;jettySize=auto;html=1;" edge="1" parent="WIyWlLk6GJQsqaUBKTNV-1" source="zHaXMeoHLVAZy8ZCwTgc-1" target="zHaXMeoHLVAZy8ZCwTgc-5">
          <mxGeometry relative="1" as="geometry" />
        </mxCell>
        <mxCell id="zHaXMeoHLVAZy8ZCwTgc-1" value="在途工单流水号查询" style="rounded=1;whiteSpace=wrap;html=1;fontSize=12;glass=0;strokeWidth=1;shadow=0;" vertex="1" parent="WIyWlLk6GJQsqaUBKTNV-1">
          <mxGeometry x="480" y="190" width="120" height="40" as="geometry" />
        </mxCell>
        <mxCell id="zHaXMeoHLVAZy8ZCwTgc-11" value="" style="edgeStyle=orthogonalEdgeStyle;rounded=0;orthogonalLoop=1;jettySize=auto;html=1;" edge="1" parent="WIyWlLk6GJQsqaUBKTNV-1" source="zHaXMeoHLVAZy8ZCwTgc-5" target="zHaXMeoHLVAZy8ZCwTgc-10">
          <mxGeometry relative="1" as="geometry" />
        </mxCell>
        <mxCell id="zHaXMeoHLVAZy8ZCwTgc-5" value="电子退费工单号校验" style="rounded=1;whiteSpace=wrap;html=1;fontSize=12;glass=0;strokeWidth=1;shadow=0;" vertex="1" parent="WIyWlLk6GJQsqaUBKTNV-1">
          <mxGeometry x="480" y="270" width="120" height="40" as="geometry" />
        </mxCell>
        <mxCell id="zHaXMeoHLVAZy8ZCwTgc-13" value="" style="edgeStyle=orthogonalEdgeStyle;rounded=0;orthogonalLoop=1;jettySize=auto;html=1;" edge="1" parent="WIyWlLk6GJQsqaUBKTNV-1" source="zHaXMeoHLVAZy8ZCwTgc-10" target="zHaXMeoHLVAZy8ZCwTgc-12">
          <mxGeometry relative="1" as="geometry" />
        </mxCell>
        <mxCell id="zHaXMeoHLVAZy8ZCwTgc-10" value="投诉工单流水号校验" style="rounded=1;whiteSpace=wrap;html=1;fontSize=12;glass=0;strokeWidth=1;shadow=0;" vertex="1" parent="WIyWlLk6GJQsqaUBKTNV-1">
          <mxGeometry x="480" y="350" width="120" height="40" as="geometry" />
        </mxCell>
        <mxCell id="zHaXMeoHLVAZy8ZCwTgc-12" value="提交灵活退费申请" style="rounded=1;whiteSpace=wrap;html=1;fontSize=12;glass=0;strokeWidth=1;shadow=0;" vertex="1" parent="WIyWlLk6GJQsqaUBKTNV-1">
          <mxGeometry x="480" y="430" width="120" height="40" as="geometry" />
        </mxCell>
        <mxCell id="zHaXMeoHLVAZy8ZCwTgc-14" value="提交退费申请" style="rounded=1;whiteSpace=wrap;html=1;fontSize=12;glass=0;strokeWidth=1;shadow=0;" vertex="1" parent="WIyWlLk6GJQsqaUBKTNV-1">
          <mxGeometry x="970" y="640" width="120" height="40" as="geometry" />
        </mxCell>
      </root>
    </mxGraphModel>
  </diagram>
</mxfile>
